<mxfile host="app.diagrams.net" agent="Mozilla/5.0 (Macintosh; Intel Mac OS X 10_15_7) AppleWebKit/537.36 (KHTML, like Gecko) Chrome/138.0.0.0 Safari/537.36" version="28.0.7">
  <diagram name="Page-1" id="NbXLkNZEoSt8VJdcK1sH">
    <mxGraphModel dx="920" dy="532" grid="1" gridSize="10" guides="1" tooltips="1" connect="1" arrows="1" fold="1" page="1" pageScale="1" pageWidth="380" pageHeight="220" math="1" shadow="0">
      <root>
        <mxCell id="0" />
        <mxCell id="1" parent="0" />
        <mxCell id="Drf8DG12KJuFO7vpcpy8-13" value="" style="shape=parallelogram;perimeter=parallelogramPerimeter;whiteSpace=wrap;html=1;fixedSize=1;size=30;" vertex="1" parent="1">
          <mxGeometry y="10" width="370" height="200" as="geometry" />
        </mxCell>
        <mxCell id="Drf8DG12KJuFO7vpcpy8-3" value="" style="endArrow=none;html=1;rounded=0;endSize=6;startSize=17;strokeWidth=1;strokeColor=default;curved=1;endFill=0;dashed=1;" edge="1" parent="1">
          <mxGeometry width="50" height="50" relative="1" as="geometry">
            <mxPoint x="10" y="130" as="sourcePoint" />
            <mxPoint x="160" y="40" as="targetPoint" />
          </mxGeometry>
        </mxCell>
        <mxCell id="Drf8DG12KJuFO7vpcpy8-10" value="" style="endArrow=none;html=1;rounded=0;endSize=6;startSize=17;strokeWidth=1;strokeColor=default;curved=1;dashed=1;endFill=0;" edge="1" parent="1">
          <mxGeometry width="50" height="50" relative="1" as="geometry">
            <mxPoint x="90" y="160" as="sourcePoint" />
            <mxPoint x="240" y="70" as="targetPoint" />
          </mxGeometry>
        </mxCell>
        <mxCell id="Drf8DG12KJuFO7vpcpy8-11" value="" style="endArrow=none;html=1;rounded=0;endSize=6;startSize=17;strokeWidth=1;strokeColor=default;curved=1;endFill=0;dashed=1;" edge="1" parent="1">
          <mxGeometry width="50" height="50" relative="1" as="geometry">
            <mxPoint x="170" y="190" as="sourcePoint" />
            <mxPoint x="320" y="100" as="targetPoint" />
          </mxGeometry>
        </mxCell>
        <mxCell id="Drf8DG12KJuFO7vpcpy8-14" value="" style="shape=waypoint;sketch=0;fillStyle=solid;size=6;pointerEvents=1;points=[];fillColor=none;resizable=0;rotatable=0;perimeter=centerPerimeter;snapToPoint=1;" vertex="1" parent="1">
          <mxGeometry x="154" y="106" width="20" height="20" as="geometry" />
        </mxCell>
        <mxCell id="Drf8DG12KJuFO7vpcpy8-15" value="" style="endArrow=classic;html=1;rounded=0;strokeColor=light-dark(#000000,#FF3333);" edge="1" parent="1">
          <mxGeometry width="50" height="50" relative="1" as="geometry">
            <mxPoint x="164" y="116" as="sourcePoint" />
            <mxPoint x="220" y="80" as="targetPoint" />
          </mxGeometry>
        </mxCell>
        <mxCell id="Drf8DG12KJuFO7vpcpy8-16" value="" style="endArrow=classic;html=1;rounded=0;strokeColor=light-dark(#000000,#66FF66);" edge="1" parent="1">
          <mxGeometry width="50" height="50" relative="1" as="geometry">
            <mxPoint x="163" y="116" as="sourcePoint" />
            <mxPoint x="210" y="60" as="targetPoint" />
          </mxGeometry>
        </mxCell>
        <mxCell id="Drf8DG12KJuFO7vpcpy8-18" value="" style="endArrow=classic;html=1;rounded=0;strokeColor=light-dark(#000000,#FFD966);" edge="1" parent="1">
          <mxGeometry width="50" height="50" relative="1" as="geometry">
            <mxPoint x="163" y="117.12" as="sourcePoint" />
            <mxPoint x="223" y="100" as="targetPoint" />
          </mxGeometry>
        </mxCell>
        <mxCell id="Drf8DG12KJuFO7vpcpy8-19" value="&lt;font style=&quot;font-size: 20px;&quot;&gt;$$u_0$$&lt;/font&gt;" style="text;html=1;align=center;verticalAlign=middle;whiteSpace=wrap;rounded=0;" vertex="1" parent="1">
          <mxGeometry x="210" y="60" width="60" height="30" as="geometry" />
        </mxCell>
        <mxCell id="Drf8DG12KJuFO7vpcpy8-20" value="&lt;font style=&quot;font-size: 20px;&quot;&gt;$$u_1$$&lt;/font&gt;" style="text;html=1;align=center;verticalAlign=middle;whiteSpace=wrap;rounded=0;" vertex="1" parent="1">
          <mxGeometry x="170" y="30" width="60" height="30" as="geometry" />
        </mxCell>
        <mxCell id="Drf8DG12KJuFO7vpcpy8-21" value="&lt;font style=&quot;font-size: 20px;&quot;&gt;$$u_2$$&lt;/font&gt;" style="text;html=1;align=center;verticalAlign=middle;whiteSpace=wrap;rounded=0;" vertex="1" parent="1">
          <mxGeometry x="200" y="101" width="60" height="30" as="geometry" />
        </mxCell>
        <mxCell id="Drf8DG12KJuFO7vpcpy8-24" value="&lt;font style=&quot;font-size: 20px;&quot;&gt;$$\alpha$$&lt;/font&gt;" style="text;html=1;align=center;verticalAlign=middle;whiteSpace=wrap;rounded=0;" vertex="1" parent="1">
          <mxGeometry y="160" width="60" height="30" as="geometry" />
        </mxCell>
      </root>
    </mxGraphModel>
  </diagram>
</mxfile>
